<svg xmlns="http://www.w3.org/2000/svg" width="196" height="192.55" viewBox="0 0 196 192.55">
  <g id="Raggruppa_223" data-name="Raggruppa 223" transform="translate(-21671 8568)">
    <path id="Tracciato_583" data-name="Tracciato 583" d="M67.891,31.768,90.8,53.906a10.361,10.361,0,0,1,.266,14.567L68.931,91.364a10.361,10.361,0,0,1-14.567.266L31.473,69.491a10.338,10.338,0,0,1-.244-14.567L53.368,32.034a10.294,10.294,0,0,1,14.545-.266" transform="translate(21705.418 -8532.927)" fill="#f4960b" fill-rule="evenodd"/>
    <path id="Tracciato_584" data-name="Tracciato 584" d="M116.052,8.438l47.774,46.114-18.4,19.172L109.212,38.812a19.924,19.924,0,0,0-27.983.531L38.813,83.331a19.924,19.924,0,0,0,.531,28L83.332,153.73a19.924,19.924,0,0,0,27.983-.531l33.03-34.248,19.172,18.463L119.24,183.307a30.329,30.329,0,0,1-42.793.8L9.236,119.284a30.329,30.329,0,0,1-.8-42.793L73.282,9.235a30.307,30.307,0,0,1,42.771-.8" transform="translate(21671.004 -8567.997)" fill="#c6c5c7" fill-rule="evenodd"/>
    <path id="Tracciato_585" data-name="Tracciato 585" d="M95.626,35.255,111.7,50.928a7.261,7.261,0,0,1,.133,10.272L96.179,77.273a7.306,7.306,0,0,1-10.294.133L69.813,61.643A7.283,7.283,0,0,1,69.7,51.371L85.354,35.3a7.283,7.283,0,0,1,10.272-.133" transform="translate(21753.107 -8527.802)" fill="#2084c6" fill-rule="evenodd"/>
  </g>
</svg>
