<svg width="176" height="235" viewBox="0 0 176 235" fill="none" xmlns="http://www.w3.org/2000/svg">
<path d="M169.992 47.4469C179.915 34.2043 177.279 14.9983 161.961 8.73671C153.432 5.24998 144.49 2.76557 135.313 1.3581C116.214 -1.57129 96.6862 0.254899 78.4609 6.67492C60.2356 13.0949 43.8749 23.9106 30.828 38.1639C17.7811 52.4172 8.45074 69.6682 3.66335 88.3887C-1.12403 107.109 -1.22064 126.722 3.38207 145.488C7.98478 164.255 17.1447 181.597 30.0506 195.978C42.9564 210.36 59.2098 221.336 77.3709 227.935C86.0967 231.106 95.1335 233.219 104.29 234.255C120.733 236.115 132.265 220.533 129.918 204.152L129.676 202.469C127.462 187.018 112.507 176.944 97.8368 171.613V171.613C88.9378 168.38 80.9737 163.001 74.6498 155.954C68.3259 148.908 63.8375 140.41 61.5822 131.214C59.3269 122.019 59.3742 112.409 61.72 103.235C64.0659 94.0624 68.6378 85.6094 75.0307 78.6253C81.4237 71.6412 89.4405 66.3415 98.3709 63.1957C107.301 60.0499 116.87 59.1551 126.228 60.5905V60.5905C141.657 62.9568 159.612 61.2989 168.972 48.808L169.992 47.4469Z" fill="url(#paint0_linear_3_10)"/>
<defs>
<linearGradient id="paint0_linear_3_10" x1="60.5" y1="-17" x2="208.5" y2="171.5" gradientUnits="userSpaceOnUse">
<stop offset="0.293406" stop-color="#BEF3F6"/>
<stop offset="1" stop-color="#7EFFD8"/>
</linearGradient>
</defs>
</svg>
