<svg width="213" height="117" viewBox="0 0 213 117" fill="none" xmlns="http://www.w3.org/2000/svg">
<path d="M27.2242 0.616267C10.6802 0.970635 -2.81428 14.8896 1.70209 30.8092C6.25055 46.8419 14.1898 61.8366 25.1141 74.7229C42.5504 95.2908 66.5303 109.236 93.0301 114.218C119.53 119.201 146.937 114.917 170.653 102.087C185.511 94.0479 198.355 82.9606 208.415 69.6747C218.405 56.4826 210.888 38.613 195.602 32.2741V32.2741C180.316 25.9352 163.018 34.2116 149.918 44.3217C147.478 46.2048 144.878 47.8985 142.138 49.3807C130.517 55.6677 117.088 57.7666 104.103 55.3252C91.1181 52.8839 79.368 46.0508 70.8242 35.9725C68.8099 33.5965 67.0028 31.0742 65.4133 28.4335C56.8795 14.2558 43.7683 0.261898 27.2242 0.616267V0.616267Z" fill="url(#paint0_linear_4_12)"/>
<defs>
<linearGradient id="paint0_linear_4_12" x1="-79" y1="85.5" x2="285" y2="130.5" gradientUnits="userSpaceOnUse">
<stop stop-color="#7EFFD8"/>
<stop offset="1" stop-color="#D186FF"/>
</linearGradient>
</defs>
</svg>
