<svg width="201" height="235" viewBox="0 0 201 235" fill="none" xmlns="http://www.w3.org/2000/svg">
<path d="M49.5142 198.171C43.0896 213.421 50.2937 231.419 66.6709 233.789C78.4822 235.498 90.5427 235.406 102.436 233.464C124.248 229.902 144.614 220.261 161.194 205.647C177.774 191.033 189.896 172.039 196.169 150.847C202.441 129.654 202.609 107.122 196.654 85.8385C190.699 64.5548 178.861 45.3822 162.501 30.5224C146.141 15.6627 125.921 5.71834 104.165 1.83141C82.4079 -2.05552 59.996 0.272549 39.5026 8.54827C28.3284 13.0607 17.9717 19.2416 8.76275 26.8325C-4.00622 37.3579 -0.823461 56.4811 12.5826 66.1821V66.1821C25.9886 75.8831 44.7317 71.8301 59.8145 65.0226C60.5163 64.7058 61.2254 64.4028 61.9413 64.1137C71.983 60.0586 82.9649 58.9178 93.6257 60.8224C104.287 62.727 114.194 67.5997 122.21 74.881C130.227 82.1623 136.027 91.5568 138.945 101.986C141.864 112.415 141.781 123.456 138.708 133.84C135.634 144.224 129.694 153.531 121.57 160.692C113.446 167.853 103.467 172.577 92.7787 174.322C92.0167 174.447 91.2533 174.556 90.489 174.649C74.0635 176.658 55.9388 182.921 49.5142 198.171V198.171Z" fill="url(#paint0_linear_3_7)"/>
<defs>
<linearGradient id="paint0_linear_3_7" x1="110" y1="-35.5" x2="84" y2="281.5" gradientUnits="userSpaceOnUse">
<stop stop-color="#D186FF"/>
<stop offset="1" stop-color="#7EFFD8"/>
</linearGradient>
</defs>
</svg>
