<svg width="177" height="83" viewBox="0 0 177 83" fill="none" xmlns="http://www.w3.org/2000/svg">
<path d="M164.761 65.6621C178.077 55.8378 181.263 36.5535 168.397 26.1464C160.571 19.8155 151.931 14.4906 142.674 10.3295C124.257 2.05101 104.018 -1.34179 83.9082 0.478362C63.7986 2.29851 44.4973 9.27019 27.8663 20.7209C19.5068 26.4765 11.9637 33.2661 5.40122 40.8994C-5.38665 53.4474 1.20998 71.8462 16.0735 79.12V79.12C30.7169 86.2862 48.4216 79.3235 61.8495 70.0782V70.0782C69.9987 64.4674 79.4563 61.0513 89.31 60.1594C99.1638 59.2675 109.081 60.93 118.105 64.9865V64.9865C132.975 71.6705 151.642 75.341 164.761 65.6621V65.6621Z" fill="url(#paint0_linear_3_5)"/>
<defs>
<linearGradient id="paint0_linear_3_5" x1="197.5" y1="-27" x2="-423.5" y2="164" gradientUnits="userSpaceOnUse">
<stop stop-color="#7EFFD8"/>
<stop offset="0.385" stop-color="#7C7ADF"/>
</linearGradient>
</defs>
</svg>
