<svg width="232" height="235" viewBox="0 0 232 235" fill="none" xmlns="http://www.w3.org/2000/svg">
<path d="M205.038 117.5C221.585 117.5 235.375 103.873 231.2 87.8605C226.839 71.1317 218.808 55.4485 207.543 42.012C189.807 20.8561 165.188 6.62078 138.005 1.80304C110.822 -3.0147 82.8104 1.89282 58.884 15.6647C34.9577 29.4367 16.6445 51.1935 7.15684 77.1189C-2.33078 103.044 -2.38695 131.482 6.99819 157.445C16.3833 183.408 34.6105 205.237 58.4822 219.103C82.354 232.969 110.346 237.987 137.548 233.277C154.825 230.285 171.082 223.491 185.211 213.529C198.735 203.993 196.999 184.684 184.36 174.003V174.003C171.721 163.322 152.726 165.955 137.174 171.609C133.993 172.766 130.698 173.646 127.324 174.231C113.995 176.539 100.278 174.08 88.5813 167.285C76.8841 160.491 67.9528 149.795 63.3541 137.073C58.7554 124.351 58.7829 110.417 63.4319 97.7132C68.0808 85.0098 77.0543 74.349 88.7782 67.6007C100.502 60.8525 114.228 58.4478 127.548 60.8085C140.867 63.1692 152.931 70.1445 161.621 80.5109C163.821 83.1352 165.77 85.9344 167.453 88.8712C175.681 103.228 188.49 117.5 205.038 117.5V117.5Z" fill="url(#paint0_linear_4_11)"/>
<defs>
<linearGradient id="paint0_linear_4_11" x1="194.5" y1="-39" x2="102.5" y2="247" gradientUnits="userSpaceOnUse">
<stop stop-color="#D186FF"/>
<stop offset="1" stop-color="#BEF3F6"/>
</linearGradient>
</defs>
</svg>
